<?xml version="1.0" encoding="utf-8"?>
<!-- Generator: Adobe Illustrator 16.0.0, SVG Export Plug-In . SVG Version: 6.00 Build 0)  -->
<!DOCTYPE svg PUBLIC "-//W3C//DTD SVG 1.1//EN" "http://www.w3.org/Graphics/SVG/1.1/DTD/svg11.dtd">
<svg version="1.1" id="Ebene_3" xmlns="http://www.w3.org/2000/svg" xmlns:xlink="http://www.w3.org/1999/xlink" x="0px" y="0px"
	 width="609.734px" height="648px" viewBox="0 0 609.734 648" enable-background="new 0 0 609.734 648" xml:space="preserve">
<g id="rect2470">
	
		<image overflow="visible" opacity="0.75" enable-background="new    " width="490" height="641" xlink:href="C13DEE685382F630.png"  transform="matrix(1 0 0 1 119.7344 7)">
	</image>
	<g>
		
			<linearGradient id="SVGID_1_" gradientUnits="userSpaceOnUse" x1="880.2695" y1="1245.9863" x2="1049.7155" y2="938.9606" gradientTransform="matrix(1 0.0011 -0.0011 1 -609.8857 -753.8831)">
			<stop  offset="0" style="stop-color:#FFFFFF"/>
			<stop  offset="1" style="stop-color:#E1E1E1"/>
		</linearGradient>
		<path fill="url(#SVGID_1_)" d="M135.042,15.892h278.339c61.783,43.892,132.342,109.453,180.631,180.928v428.196h-458.97V15.892z"
			/>
		<path fill="none" stroke="#C8C8C8" stroke-width="0.5" d="M135.042,15.892h278.339c61.783,43.892,132.342,109.453,180.631,180.928
			v428.196h-458.97V15.892z"/>
	</g>
</g>
<g id="path3395">
	
		<image overflow="visible" opacity="0.75" enable-background="new    " width="213" height="212" xlink:href="C13DEE685382F631.png"  transform="matrix(0.9953 0 0 1 397.7334 0)">
	</image>
	<g>
		
			<linearGradient id="SVGID_2_" gradientUnits="userSpaceOnUse" x1="1093.4336" y1="878.2881" x2="1119.5525" y2="854.2124" gradientTransform="matrix(1 0 0 1 -610.5645 -752.7344)">
			<stop  offset="0" style="stop-color:#FFFFFF"/>
			<stop  offset="1" style="stop-color:#C8C8C8"/>
		</linearGradient>
		<path fill="url(#SVGID_2_)" d="M413.382,15.892c67.213,48.913,131.213,109.164,180.631,180.928
			c-32.008-33.245-75.898-50.99-127.982-48.712C472.185,86.465,448.411,46.655,413.382,15.892z"/>
		<path fill="none" stroke="#C8C8C8" stroke-width="0.5" d="M413.382,15.892c67.213,48.913,131.213,109.164,180.631,180.928
			c-32.008-33.245-75.898-50.99-127.982-48.712C472.185,86.465,448.411,46.655,413.382,15.892z"/>
	</g>
</g>
<rect id="rect3372" x="7.673" y="58.679" fill="none" stroke="#C8C8C8" stroke-width="6.0045" width="414.339" height="139.261"/>
<g>
	<path id="path4463" fill="#B5B0B0" d="M297.163,416.511c11.188-21.929,23.904-46.636,34.08-71.441l0,0l4.025-9.792
		c-13.293-50.584-21.266-91.188-14.145-117.443l0,0c1.918-6.845,9.846-10.998,18.322-10.998l0,0l5.164,0.076h0.949
		c11.604-0.178,17.066,14.583,17.688,20.322l0,0c1.023,9.558-3.398,25.734-3.398,25.734l0,0c0-6.532,0.256-17.087-3.867-26.195l0,0
		c-4.799-10.539-9.383-16.835-13.492-17.833l0,0c-2.076,1.386-4.092,4.256-4.783,9.777l0,0c-1.432,7.741-1.861,17.512-1.861,22.549
		l0,0c0,17.796,3.506,41.285,10.391,65.499l0,0c1.299-3.749,2.441-7.351,3.352-10.726l0,0c1.412-5.319,10.389-40.578,10.389-40.578
		l0,0c0,0-2.262,46.935-5.422,61.136l0,0c-0.678,3.001-1.424,5.969-2.201,9.007l0,0c11.354,31.728,29.65,60.044,51.479,80.425l0,0
		c8.605,8.043,19.475,14.527,29.762,20.438l0,0c22.465-3.21,43.148-4.726,60.404-4.535l0,0c22.895,0.302,39.699,3.688,46.504,10.392
		l0,0c3.332,3.258,4.686,7.192,5.105,11.604l0,0c0.1,1.716-0.736,5.748-0.982,6.76l0,0c0.246-1.225,0.246-7.249-18.133-13.115l0,0
		c-14.473-4.627-41.562-4.482-74.068-1.022l0,0c37.598,18.394,74.227,27.532,85.834,22.054l0,0c2.838-1.383,6.279-6.099,6.279-6.099
		l0,0c0,0-2.045,9.296-3.514,11.62l0,0c-1.875,2.524-5.553,5.26-9.041,6.182l0,0c-18.332,4.891-66.051-6.427-107.65-30.197l0,0
		c-46.479,6.846-97.521,19.49-138.437,32.91l0,0c-40.207,70.463-70.435,102.825-95.026,90.514l0,0l-9.041-4.546
		c-3.675-2.102-4.236-7.219-3.386-11.386l0,0c2.867-14.027,20.456-35.154,55.787-56.251l0,0
		c3.803-2.301,20.743-11.258,20.743-11.258l0,0c0,0-12.541,12.138-15.479,14.521l0,0c-28.2,23.108-49.013,52.182-48.494,63.452l0,0
		l0.102,0.983C215.055,555.635,250.979,506.877,297.163,416.511 M311.8,424.005c-7.715,14.528-15.254,27.997-22.215,40.366l0,0
		c38.506-16.133,79.95-26.457,119.401-33.791l0,0c-5.301-3.662-10.449-7.539-15.291-11.637l0,0
		c-21.727-18.393-38.289-41.34-50.295-65.486l0,0C335.786,373.97,326.731,395.768,311.8,424.005"/>
</g>
<path fill="#999999" d="M554.04,479.828h1.488c1.648,0,3.053-0.498,3.053-1.924c0-1.136-0.713-1.924-2.836-1.924
	c-0.85,0-1.35,0.078-1.705,0.155V479.828L554.04,479.828z M554.04,486.494h-2.203v-11.865c1.215-0.197,2.48-0.336,4.129-0.336
	c1.984,0,2.973,0.336,3.746,0.91c0.717,0.496,1.215,1.43,1.215,2.5c0,1.49-1.053,2.4-2.346,2.838v0.138
	c1.076,0.422,1.648,1.354,2.008,2.841c0.338,1.844,0.557,2.559,0.852,2.977h-2.281c-0.355-0.418-0.637-1.489-0.934-3.117
	c-0.275-1.291-1.047-1.848-2.756-1.848h-1.43V486.494L554.04,486.494z M556.327,491.689c-6.275,0-11.367-5.088-11.367-11.363
	c0-6.279,5.092-11.371,11.367-11.371c6.277,0,11.369,5.092,11.369,11.371C567.696,486.602,562.604,491.689,556.327,491.689z
	 M565.419,480.324c0-5.022-4.07-9.096-9.092-9.096s-9.094,4.072-9.094,9.096c0,5.021,4.072,9.094,9.094,9.094
	S565.419,485.347,565.419,480.324z"/>
<g>
	<path fill="#898989" d="M349.054,567.622l-3.082-19.909c-0.885-5.729-2-14.68-2.867-20.885h-0.334
		c-0.91,6.25-2.162,15.467-3.074,20.935l-3.322,19.859H349.054z M334.704,580.574l-4.012,22.071h-14.82l18.475-91.832h18.186
		l16.781,91.832h-14.889l-3.945-22.071H334.704L334.704,580.574z"/>
	<path fill="#898989" d="M403.044,561.63c0-1.237,0-2.669-0.221-3.965c-0.605-4.548-2.828-8.63-6.373-8.63
		c-6.125,0-8.381,9.603-8.381,20.812c0,12.873,3.211,20.219,8.16,20.219c2.268,0,4.852-1.269,6.281-6.663
		c0.33-1.082,0.533-2.525,0.533-4.205V561.63L403.044,561.63z M418.243,508.379v75.218c0,5.975,0.287,13.312,0.514,19.05H405.61
		l-0.844-7.666h-0.338c-2.186,4.718-7,8.736-12.727,8.736c-12.59,0-18.83-15.104-18.83-34.173c0-23.239,9.318-34.55,19.457-34.55
		c5.301,0,8.711,2.838,10.449,6.92h0.268V508.38L418.243,508.379L418.243,508.379z"/>
	<path fill="#898989" d="M449.905,591.014c5.822,0,7.238-11.898,7.238-21.755c0-9.376-1.416-21.57-7.482-21.57
		c-6.422,0-7.777,12.194-7.777,21.57c0,11.306,1.719,21.755,7.91,21.755H449.905z M449.638,603.717
		c-14.016,0-22.816-12.255-22.816-34.159c0-23.917,11.271-34.563,23.15-34.563c13.816,0,22.504,12.857,22.504,34.166
		c0,27.396-13.59,34.558-22.727,34.558L449.638,603.717L449.638,603.717z"/>
	<path fill="#898989" d="M496.188,578.882c0,1.646,0.268,3.201,0.6,4.243c1.518,5.572,4.121,6.94,6.195,6.94
		c5.859,0,8.246-8.107,8.246-21.08c0-11.809-2.516-19.95-8.314-19.95c-2.891,0-5.322,3.419-6.148,7.076
		c-0.311,1.141-0.576,2.948-0.576,4.186v18.585H496.188z M480.993,508.379h15.195v34.668h0.244
		c3.012-5.113,6.998-8.053,12.766-8.053c11.479,0,17.23,14.194,17.23,32.731c0,23.451-8.58,35.99-19.697,35.99
		c-5.305,0-8.846-2.558-12.033-9.043h-0.314l-0.867,7.973h-13.041c0.205-5.531,0.52-13.075,0.52-19.05v-75.217H480.993z"/>
	<path fill="#898989" d="M562.882,563.013c0.064-9.347-2.451-15.878-7.266-15.878c-5.502,0-7.844,8.765-8.021,15.878H562.882z
		 M547.552,574.72c0.178,12.03,5.99,15.96,13.211,15.96c4.566,0,8.516-1.108,11.408-2.306l2.029,11.901
		c-4.01,1.9-10.25,3.08-16.225,3.08c-16.314,0-25.225-12.122-25.225-32.853c0-22.237,10.338-35.604,23.846-35.604
		c13.033,0,20.277,11.809,20.277,31.08c0,4.413-0.182,6.886-0.449,8.826L547.552,574.72z"/>
</g>
<g>
	
		<image overflow="visible" opacity="0.3" enable-background="new    " width="445" height="171" xlink:href="C13DEE685382F637.png"  transform="matrix(0.9978 0 0 0.9942 -6.7295 46.5371)">
	</image>
	<g>
		<g>
			<rect x="7.492" y="59.229" fill="#C6C6C6" width="414.341" height="139.262"/>
			<path fill="#A8A8A8" d="M429.745,206.847H-0.001V50.875h429.747V206.847z M414.288,66.335H15.447v125.018h398.841V66.335z"/>
			<path fill="#FFF9F9" d="M115.786,79.665h30.151c8.963,0,15.836,2.645,20.617,7.934c4.815,5.25,7.221,12.746,7.221,22.494
				c0,9.79-2.406,17.329-7.221,22.619c-4.781,5.25-11.654,7.875-20.617,7.872h-11.986v32.366h-18.165V79.665 M133.952,97.096v26.055
				h10.052c3.521,0,6.243-1.124,8.162-3.373c1.919-2.292,2.878-5.521,2.878-9.686c0-4.166-0.958-7.374-2.878-9.623
				c-1.918-2.249-4.64-3.374-8.162-3.374L133.952,97.096 M204.728,97.845v56.924h6.509c7.424,0,13.087-2.437,16.986-7.311
				c3.932-4.874,5.899-11.956,5.899-21.244c0-9.249-1.952-16.286-5.852-21.121c-3.899-4.832-9.578-7.248-17.033-7.248H204.728
				 M186.562,79.665h19.155c10.696,0,18.655,1.02,23.874,3.06c5.254,2.002,9.752,5.416,13.495,10.249
				c3.304,4.206,5.756,9.059,7.361,14.556c1.604,5.501,2.406,11.727,2.406,18.684c0,7.039-0.803,13.331-2.406,18.871
				c-1.605,5.498-4.058,10.35-7.362,14.558c-3.774,4.831-8.303,8.268-13.587,10.309c-5.285,1.999-13.211,2.998-23.781,2.998h-19.155
				V79.665 M266.771,79.665h49.023v18.181h-30.858v17.372h29.017v18.184h-29.017v39.549h-18.165V79.665"/>
		</g>
	</g>
</g>
</svg>
